<?xml version="1.0" encoding="UTF-8"?>
<svg id="Layer_1" data-name="Layer 1" xmlns="http://www.w3.org/2000/svg" viewBox="0 0 673.48 280.12">
  <defs>
    <style>
      .cls-1 {
        fill: none;
        stroke: #606060;
        stroke-miterlimit: 10;
        stroke-width: 1px;
      }
    </style>
  </defs>
  <path class="cls-1" d="M168.67,233.26h-13.85c-51.53,0-93.45-41.92-93.45-93.45s41.92-93.45,93.45-93.45h13.85c5.72,0,10.36,4.64,10.36,10.36s-4.64,10.36-10.36,10.36h-13.85c-40.1,0-72.72,32.62-72.72,72.72s32.62,72.72,72.72,72.72h13.85c5.72,0,10.36,4.64,10.36,10.36s-4.64,10.36-10.36,10.36Z"/>
  <path class="cls-1" d="M315.06,233.26c-5.72,0-10.36-4.64-10.36-10.36v-109.95c0-25.29-20.57-45.86-45.86-45.86s-45.86,20.57-45.86,45.86v109.95c0,5.72-4.64,10.36-10.36,10.36s-10.36-4.64-10.36-10.36v-109.95c0-36.72,29.87-66.59,66.59-66.59s66.59,29.87,66.59,66.59v109.95c0,5.72-4.64,10.36-10.36,10.36Z"/>
  <path class="cls-1" d="M423.78,233.26c-5.72,0-10.36-4.64-10.36-10.36v-85.15c0-38.96-31.7-70.66-70.66-70.66-5.72,0-10.36-4.64-10.36-10.36s4.64-10.36,10.36-10.36c50.39,0,91.39,41,91.39,91.38v85.15c0,5.72-4.64,10.36-10.36,10.36Z"/>
  <path class="cls-1" d="M493.1,67.09h-61.32c-5.72,0-10.36-4.64-10.36-10.36s4.64-10.36,10.36-10.36h61.32c5.72,0,10.36,4.64,10.36,10.36s-4.64,10.36-10.36,10.36Z"/>
  <path class="cls-1" d="M500.03,233.26c5.72,0,10.36-4.64,10.36-10.36v-85.15c0-38.96,31.7-70.66,70.66-70.66,5.72,0,10.36-4.64,10.36-10.36,0-5.72-4.64-10.36-10.36-10.36-50.39,0-91.39,41-91.39,91.38v85.15c0,5.72,4.64,10.36,10.36,10.36Z"/>
  <path class="cls-1" d="M540.54,278.71H132.94C61.05,278.71,2.57,220.23,2.57,148.35v-16.57C2.57,59.89,61.05,1.41,132.94,1.41h407.61c71.88,0,130.37,58.48,130.37,130.37v16.57c0,71.88-58.48,130.37-130.37,130.37ZM132.94,22.14c-60.45,0-109.64,49.18-109.64,109.64v16.57c0,60.45,49.18,109.64,109.64,109.64h407.61c60.45,0,109.64-49.18,109.64-109.64v-16.57c0-60.45-49.18-109.64-109.64-109.64H132.94Z"/>
</svg>